# MagicaVoxel @ Ephtracy

# material
mtllib Elm_2.mtl
usemtl palette

# normals
vn -1 0 0
vn 1 0 0
vn 0 0 1
vn 0 0 -1
vn 0 -1 0
vn 0 1 0

# texcoords
vt 0.330078 0.5

# verts
v -63 0 60
v -63 0 54
v -63 1 60
v -63 1 54
v -62 0 61
v -62 0 60
v -62 1 61
v -62 1 60
v -62 1 55
v -62 23 60
v -62 23 55
v -61 23 60
v -61 23 56
v -61 24 60
v -61 24 56
v -60 0 54
v -60 0 53
v -60 1 55
v -60 1 54
v -60 7 54
v -60 7 53
v -60 23 56
v -60 23 55
v -60 24 56
v -60 24 54
v -59 0 62
v -59 0 61
v -59 0 53
v -59 0 52
v -59 1 61
v -59 1 60
v -59 7 53
v -59 7 52
v -59 23 62
v -59 23 61
v -59 24 61
v -59 24 60
v -58 7 54
v -58 7 53
v -58 17 54
v -58 17 53
v -57 0 52
v -57 0 51
v -57 1 52
v -57 1 51
v -56 0 63
v -56 0 62
v -56 1 63
v -56 1 62
v -49 0 60
v -49 0 59
v -49 1 60
v -49 1 59
v -49 1 58
v -49 24 59
v -49 24 58
v -55 23 61
v -55 23 60
v -55 24 61
v -55 24 60
v -54 2 62
v -54 2 61
v -54 17 55
v -54 17 54
v -54 23 62
v -54 23 61
v -54 23 56
v -54 23 55
v -54 24 56
v -54 24 54
v -53 0 53
v -53 0 51
v -53 1 54
v -53 1 53
v -53 1 52
v -53 1 51
v -53 2 55
v -53 2 54
v -53 7 53
v -53 7 52
v -53 17 55
v -53 17 53
v -52 0 54
v -52 0 53
v -52 1 55
v -52 1 54
v -52 1 53
v -52 2 55
v -52 2 54
v -52 23 60
v -52 23 58
v -52 24 60
v -52 24 58
v -51 0 63
v -51 0 61
v -51 1 63
v -51 1 62
v -51 1 61
v -51 1 58
v -51 2 62
v -51 2 61
v -51 23 61
v -51 23 58
v -50 0 61
v -50 0 59
v -50 1 61
v -50 1 59
v -48 23 59
v -48 23 58
v -48 24 59
v -48 24 58
v -47 1 59
v -47 1 58
v -47 12 56
v -47 12 55
v -47 23 59
v -47 23 58
v -47 23 56
v -47 23 55
v -47 24 58
v -47 24 56
v -46 0 60
v -46 0 58
v -46 0 55
v -46 0 54
v -46 1 60
v -46 1 58
v -46 1 55
v -46 1 54
v -46 12 58
v -46 12 56
v -46 23 58
v -46 23 56
v -45 0 58
v -45 0 55
v -45 12 58
v -45 12 55
v -56 0 63
v -56 1 63
v -51 0 63
v -51 1 63
v -59 0 62
v -59 23 62
v -56 0 62
v -56 1 62
v -54 2 62
v -54 23 62
v -51 1 62
v -51 2 62
v -62 0 61
v -62 1 61
v -59 0 61
v -59 1 61
v -59 23 61
v -59 24 61
v -55 23 61
v -55 24 61
v -54 2 61
v -54 23 61
v -51 0 61
v -51 1 61
v -51 2 61
v -51 23 61
v -50 0 61
v -50 1 61
v -63 0 60
v -63 1 60
v -62 0 60
v -62 1 60
v -62 23 60
v -61 23 60
v -61 24 60
v -59 1 60
v -59 24 60
v -55 23 60
v -55 24 60
v -52 23 60
v -52 24 60
v -49 0 60
v -49 1 60
v -46 0 60
v -46 1 60
v -50 0 59
v -50 1 59
v -49 0 59
v -49 1 59
v -49 24 59
v -48 23 59
v -48 24 59
v -47 1 59
v -47 23 59
v -52 23 58
v -52 24 58
v -51 1 58
v -51 23 58
v -49 1 58
v -49 24 58
v -48 23 58
v -48 24 58
v -47 1 58
v -47 23 58
v -47 24 58
v -46 0 58
v -46 1 58
v -46 12 58
v -46 23 58
v -45 0 58
v -45 12 58
v -61 23 56
v -61 24 56
v -60 23 56
v -60 24 56
v -54 23 56
v -54 24 56
v -47 12 56
v -47 23 56
v -47 24 56
v -46 12 56
v -46 23 56
v -62 1 55
v -62 23 55
v -60 1 55
v -60 23 55
v -54 17 55
v -54 23 55
v -53 2 55
v -53 17 55
v -52 1 55
v -52 2 55
v -47 12 55
v -47 23 55
v -46 0 55
v -46 1 55
v -45 0 55
v -45 12 55
v -63 0 54
v -63 1 54
v -60 0 54
v -60 1 54
v -60 7 54
v -60 24 54
v -58 7 54
v -58 17 54
v -54 17 54
v -54 24 54
v -53 1 54
v -53 2 54
v -52 0 54
v -52 1 54
v -52 2 54
v -46 0 54
v -46 1 54
v -60 0 53
v -60 7 53
v -59 0 53
v -59 7 53
v -58 7 53
v -58 17 53
v -53 0 53
v -53 1 53
v -53 7 53
v -53 17 53
v -52 0 53
v -52 1 53
v -59 0 52
v -59 7 52
v -57 0 52
v -57 1 52
v -53 1 52
v -53 7 52
v -57 0 51
v -57 1 51
v -53 0 51
v -53 1 51
v -56 0 63
v -51 0 63
v -59 0 62
v -56 0 62
v -62 0 61
v -59 0 61
v -51 0 61
v -50 0 61
v -63 0 60
v -62 0 60
v -49 0 60
v -46 0 60
v -50 0 59
v -49 0 59
v -46 0 58
v -45 0 58
v -46 0 55
v -45 0 55
v -63 0 54
v -60 0 54
v -52 0 54
v -46 0 54
v -60 0 53
v -59 0 53
v -53 0 53
v -52 0 53
v -59 0 52
v -57 0 52
v -57 0 51
v -53 0 51
v -56 1 63
v -51 1 63
v -56 1 62
v -51 1 62
v -62 1 61
v -59 1 61
v -51 1 61
v -50 1 61
v -63 1 60
v -62 1 60
v -59 1 60
v -49 1 60
v -46 1 60
v -50 1 59
v -49 1 59
v -47 1 59
v -51 1 58
v -49 1 58
v -47 1 58
v -46 1 58
v -62 1 55
v -60 1 55
v -52 1 55
v -46 1 55
v -63 1 54
v -60 1 54
v -53 1 54
v -52 1 54
v -46 1 54
v -53 1 53
v -52 1 53
v -57 1 52
v -53 1 52
v -57 1 51
v -53 1 51
v -54 2 62
v -51 2 62
v -54 2 61
v -51 2 61
v -53 2 55
v -52 2 55
v -53 2 54
v -52 2 54
v -60 7 54
v -58 7 54
v -60 7 53
v -59 7 53
v -58 7 53
v -53 7 53
v -59 7 52
v -53 7 52
v -46 12 58
v -45 12 58
v -47 12 56
v -46 12 56
v -47 12 55
v -45 12 55
v -54 17 55
v -53 17 55
v -58 17 54
v -54 17 54
v -58 17 53
v -53 17 53
v -59 23 62
v -54 23 62
v -59 23 61
v -55 23 61
v -54 23 61
v -51 23 61
v -62 23 60
v -61 23 60
v -55 23 60
v -52 23 60
v -48 23 59
v -47 23 59
v -52 23 58
v -51 23 58
v -48 23 58
v -47 23 58
v -46 23 58
v -61 23 56
v -60 23 56
v -54 23 56
v -47 23 56
v -46 23 56
v -62 23 55
v -60 23 55
v -54 23 55
v -47 23 55
v -59 24 61
v -55 24 61
v -61 24 60
v -59 24 60
v -55 24 60
v -52 24 60
v -49 24 59
v -48 24 59
v -52 24 58
v -49 24 58
v -48 24 58
v -47 24 58
v -61 24 56
v -60 24 56
v -54 24 56
v -47 24 56
v -60 24 54
v -54 24 54

# faces
f 3/1/1 2/1/1 1/1/1
f 4/1/1 2/1/1 3/1/1
f 7/1/1 6/1/1 5/1/1
f 8/1/1 6/1/1 7/1/1
f 10/1/1 9/1/1 8/1/1
f 11/1/1 9/1/1 10/1/1
f 14/1/1 13/1/1 12/1/1
f 15/1/1 13/1/1 14/1/1
f 19/1/1 17/1/1 16/1/1
f 20/1/1 17/1/1 19/1/1
f 20/1/1 19/1/1 18/1/1
f 21/1/1 17/1/1 20/1/1
f 23/1/1 20/1/1 18/1/1
f 24/1/1 23/1/1 22/1/1
f 25/1/1 20/1/1 23/1/1
f 25/1/1 23/1/1 24/1/1
f 30/1/1 27/1/1 26/1/1
f 32/1/1 29/1/1 28/1/1
f 33/1/1 29/1/1 32/1/1
f 34/1/1 31/1/1 30/1/1
f 34/1/1 30/1/1 26/1/1
f 35/1/1 31/1/1 34/1/1
f 36/1/1 31/1/1 35/1/1
f 37/1/1 31/1/1 36/1/1
f 40/1/1 39/1/1 38/1/1
f 41/1/1 39/1/1 40/1/1
f 44/1/1 43/1/1 42/1/1
f 45/1/1 43/1/1 44/1/1
f 48/1/1 47/1/1 46/1/1
f 49/1/1 47/1/1 48/1/1
f 52/1/1 51/1/1 50/1/1
f 53/1/1 51/1/1 52/1/1
f 55/1/1 54/1/1 53/1/1
f 56/1/1 54/1/1 55/1/1
f 57/1/2 58/1/2 59/1/2
f 59/1/2 58/1/2 60/1/2
f 61/1/2 62/1/2 65/1/2
f 65/1/2 62/1/2 66/1/2
f 63/1/2 64/1/2 68/1/2
f 67/1/2 68/1/2 69/1/2
f 68/1/2 64/1/2 70/1/2
f 69/1/2 68/1/2 70/1/2
f 71/1/2 72/1/2 74/1/2
f 74/1/2 72/1/2 75/1/2
f 75/1/2 72/1/2 76/1/2
f 73/1/2 74/1/2 78/1/2
f 74/1/2 75/1/2 78/1/2
f 78/1/2 75/1/2 79/1/2
f 77/1/2 78/1/2 79/1/2
f 79/1/2 75/1/2 80/1/2
f 77/1/2 79/1/2 81/1/2
f 81/1/2 79/1/2 82/1/2
f 83/1/2 84/1/2 86/1/2
f 86/1/2 84/1/2 87/1/2
f 85/1/2 86/1/2 88/1/2
f 88/1/2 86/1/2 89/1/2
f 90/1/2 91/1/2 92/1/2
f 92/1/2 91/1/2 93/1/2
f 94/1/2 95/1/2 96/1/2
f 96/1/2 95/1/2 97/1/2
f 97/1/2 95/1/2 98/1/2
f 98/1/2 99/1/2 100/1/2
f 97/1/2 98/1/2 100/1/2
f 100/1/2 99/1/2 101/1/2
f 101/1/2 99/1/2 102/1/2
f 102/1/2 99/1/2 103/1/2
f 104/1/2 105/1/2 106/1/2
f 106/1/2 105/1/2 107/1/2
f 108/1/2 109/1/2 110/1/2
f 110/1/2 109/1/2 111/1/2
f 112/1/2 113/1/2 116/1/2
f 116/1/2 113/1/2 117/1/2
f 114/1/2 115/1/2 118/1/2
f 118/1/2 115/1/2 119/1/2
f 117/1/2 118/1/2 120/1/2
f 120/1/2 118/1/2 121/1/2
f 122/1/2 123/1/2 126/1/2
f 126/1/2 123/1/2 127/1/2
f 124/1/2 125/1/2 128/1/2
f 128/1/2 125/1/2 129/1/2
f 130/1/2 131/1/2 132/1/2
f 132/1/2 131/1/2 133/1/2
f 134/1/2 135/1/2 136/1/2
f 136/1/2 135/1/2 137/1/2
f 140/1/3 139/1/3 138/1/3
f 141/1/3 139/1/3 140/1/3
f 144/1/3 143/1/3 142/1/3
f 145/1/3 143/1/3 144/1/3
f 146/1/3 143/1/3 145/1/3
f 147/1/3 143/1/3 146/1/3
f 148/1/3 146/1/3 145/1/3
f 149/1/3 146/1/3 148/1/3
f 152/1/3 151/1/3 150/1/3
f 153/1/3 151/1/3 152/1/3
f 156/1/3 155/1/3 154/1/3
f 157/1/3 155/1/3 156/1/3
f 162/1/3 159/1/3 158/1/3
f 163/1/3 159/1/3 162/1/3
f 164/1/3 161/1/3 160/1/3
f 165/1/3 161/1/3 164/1/3
f 168/1/3 167/1/3 166/1/3
f 169/1/3 167/1/3 168/1/3
f 171/1/3 170/1/3 169/1/3
f 173/1/3 171/1/3 169/1/3
f 173/1/3 172/1/3 171/1/3
f 174/1/3 172/1/3 173/1/3
f 177/1/3 176/1/3 175/1/3
f 178/1/3 176/1/3 177/1/3
f 181/1/3 180/1/3 179/1/3
f 182/1/3 180/1/3 181/1/3
f 185/1/3 184/1/3 183/1/3
f 186/1/3 184/1/3 185/1/3
f 188/1/3 187/1/3 186/1/3
f 189/1/3 187/1/3 188/1/3
f 190/1/3 188/1/3 186/1/3
f 191/1/3 188/1/3 190/1/3
f 195/1/3 193/1/3 192/1/3
f 196/1/3 195/1/3 194/1/3
f 197/1/3 193/1/3 195/1/3
f 197/1/3 195/1/3 196/1/3
f 201/1/3 199/1/3 198/1/3
f 202/1/3 199/1/3 201/1/3
f 204/1/3 201/1/3 200/1/3
f 205/1/3 201/1/3 204/1/3
f 206/1/3 201/1/3 205/1/3
f 207/1/3 204/1/3 203/1/3
f 207/1/3 205/1/3 204/1/3
f 208/1/3 205/1/3 207/1/3
f 209/1/4 210/1/4 211/1/4
f 211/1/4 210/1/4 212/1/4
f 213/1/4 214/1/4 216/1/4
f 216/1/4 214/1/4 217/1/4
f 215/1/4 216/1/4 218/1/4
f 218/1/4 216/1/4 219/1/4
f 220/1/4 221/1/4 222/1/4
f 222/1/4 221/1/4 223/1/4
f 224/1/4 225/1/4 227/1/4
f 226/1/4 227/1/4 229/1/4
f 229/1/4 227/1/4 230/1/4
f 228/1/4 229/1/4 230/1/4
f 227/1/4 225/1/4 231/1/4
f 230/1/4 227/1/4 231/1/4
f 228/1/4 230/1/4 233/1/4
f 232/1/4 233/1/4 234/1/4
f 233/1/4 230/1/4 235/1/4
f 234/1/4 233/1/4 235/1/4
f 236/1/4 237/1/4 238/1/4
f 238/1/4 237/1/4 239/1/4
f 240/1/4 241/1/4 242/1/4
f 242/1/4 241/1/4 243/1/4
f 243/1/4 241/1/4 244/1/4
f 244/1/4 241/1/4 245/1/4
f 246/1/4 247/1/4 249/1/4
f 249/1/4 247/1/4 250/1/4
f 248/1/4 249/1/4 251/1/4
f 251/1/4 249/1/4 252/1/4
f 253/1/4 254/1/4 255/1/4
f 255/1/4 254/1/4 256/1/4
f 257/1/4 258/1/4 261/1/4
f 261/1/4 258/1/4 262/1/4
f 259/1/4 260/1/4 263/1/4
f 263/1/4 260/1/4 264/1/4
f 265/1/4 266/1/4 267/1/4
f 267/1/4 266/1/4 268/1/4
f 268/1/4 266/1/4 269/1/4
f 269/1/4 266/1/4 270/1/4
f 271/1/4 272/1/4 273/1/4
f 273/1/4 272/1/4 274/1/4
f 278/1/5 276/1/5 275/1/5
f 280/1/5 278/1/5 277/1/5
f 281/1/5 276/1/5 278/1/5
f 281/1/5 278/1/5 280/1/5
f 284/1/5 280/1/5 279/1/5
f 284/1/5 282/1/5 281/1/5
f 284/1/5 281/1/5 280/1/5
f 287/1/5 282/1/5 284/1/5
f 287/1/5 284/1/5 283/1/5
f 288/1/5 286/1/5 285/1/5
f 289/1/5 286/1/5 288/1/5
f 289/1/5 288/1/5 287/1/5
f 291/1/5 289/1/5 287/1/5
f 291/1/5 290/1/5 289/1/5
f 292/1/5 290/1/5 291/1/5
f 293/1/5 287/1/5 283/1/5
f 293/1/5 291/1/5 287/1/5
f 294/1/5 291/1/5 293/1/5
f 295/1/5 291/1/5 294/1/5
f 296/1/5 291/1/5 295/1/5
f 297/1/5 295/1/5 294/1/5
f 298/1/5 295/1/5 297/1/5
f 299/1/5 295/1/5 298/1/5
f 300/1/5 295/1/5 299/1/5
f 301/1/5 299/1/5 298/1/5
f 302/1/5 299/1/5 301/1/5
f 303/1/5 299/1/5 302/1/5
f 304/1/5 299/1/5 303/1/5
f 305/1/6 306/1/6 307/1/6
f 307/1/6 306/1/6 308/1/6
f 309/1/6 310/1/6 314/1/6
f 314/1/6 310/1/6 315/1/6
f 311/1/6 312/1/6 318/1/6
f 316/1/6 317/1/6 319/1/6
f 319/1/6 317/1/6 320/1/6
f 311/1/6 318/1/6 321/1/6
f 318/1/6 319/1/6 321/1/6
f 321/1/6 319/1/6 322/1/6
f 320/1/6 317/1/6 323/1/6
f 323/1/6 317/1/6 324/1/6
f 313/1/6 314/1/6 325/1/6
f 313/1/6 325/1/6 329/1/6
f 325/1/6 326/1/6 329/1/6
f 329/1/6 326/1/6 330/1/6
f 327/1/6 328/1/6 332/1/6
f 332/1/6 328/1/6 333/1/6
f 331/1/6 332/1/6 334/1/6
f 334/1/6 332/1/6 335/1/6
f 336/1/6 337/1/6 338/1/6
f 338/1/6 337/1/6 339/1/6
f 340/1/6 341/1/6 342/1/6
f 342/1/6 341/1/6 343/1/6
f 344/1/6 345/1/6 346/1/6
f 346/1/6 345/1/6 347/1/6
f 348/1/6 349/1/6 350/1/6
f 350/1/6 349/1/6 351/1/6
f 351/1/6 349/1/6 352/1/6
f 352/1/6 353/1/6 354/1/6
f 351/1/6 352/1/6 354/1/6
f 354/1/6 353/1/6 355/1/6
f 356/1/6 357/1/6 359/1/6
f 358/1/6 359/1/6 360/1/6
f 359/1/6 357/1/6 361/1/6
f 360/1/6 359/1/6 361/1/6
f 362/1/6 363/1/6 365/1/6
f 364/1/6 365/1/6 366/1/6
f 365/1/6 363/1/6 367/1/6
f 366/1/6 365/1/6 367/1/6
f 368/1/6 369/1/6 370/1/6
f 370/1/6 369/1/6 371/1/6
f 371/1/6 369/1/6 372/1/6
f 372/1/6 373/1/6 376/1/6
f 371/1/6 372/1/6 376/1/6
f 376/1/6 373/1/6 377/1/6
f 377/1/6 373/1/6 380/1/6
f 380/1/6 373/1/6 381/1/6
f 378/1/6 379/1/6 382/1/6
f 382/1/6 379/1/6 383/1/6
f 374/1/6 375/1/6 385/1/6
f 383/1/6 384/1/6 388/1/6
f 388/1/6 384/1/6 389/1/6
f 385/1/6 386/1/6 390/1/6
f 374/1/6 385/1/6 390/1/6
f 390/1/6 386/1/6 391/1/6
f 387/1/6 388/1/6 392/1/6
f 392/1/6 388/1/6 393/1/6
f 394/1/6 395/1/6 397/1/6
f 397/1/6 395/1/6 398/1/6
f 396/1/6 397/1/6 402/1/6
f 397/1/6 398/1/6 402/1/6
f 398/1/6 399/1/6 402/1/6
f 400/1/6 401/1/6 403/1/6
f 403/1/6 401/1/6 404/1/6
f 396/1/6 402/1/6 406/1/6
f 404/1/6 405/1/6 406/1/6
f 403/1/6 404/1/6 406/1/6
f 402/1/6 403/1/6 406/1/6
f 406/1/6 405/1/6 407/1/6
f 407/1/6 405/1/6 408/1/6
f 408/1/6 405/1/6 409/1/6
f 407/1/6 408/1/6 410/1/6
f 410/1/6 408/1/6 411/1/6
