# MagicaVoxel @ Ephtracy

# material
mtllib Money.mtl
usemtl palette

# normals
vn -1 0 0
vn 1 0 0
vn 0 0 1
vn 0 0 -1
vn 0 -1 0
vn 0 1 0

# texcoords
vt 0.814453 0.5
vt 0.880859 0.5
vt 0.884766 0.5
vt 0.888672 0.5
vt 0.970703 0.5
vt 0.974609 0.5

# verts
v -20 12 10
v -20 12 -10
v -20 14 10
v -20 14 -10
v -20 16 10
v -20 16 -10
v -20 18 10
v -20 18 -10
v -20 20 10
v -20 20 -10
v -20 22 10
v -20 22 -10
v -20 24 10
v -20 24 -10
v -20 26 10
v -20 26 -10
v -19 14 9
v -19 14 -9
v -19 16 9
v -19 16 -9
v -19 18 9
v -19 18 -9
v -19 20 9
v -19 20 -9
v -19 22 9
v -19 22 -9
v -19 24 9
v -19 24 -9
v -5 11 11
v -5 11 -11
v -5 12 10
v -5 12 -10
v -5 14 10
v -5 14 -10
v -5 16 10
v -5 16 -10
v -5 18 10
v -5 18 -10
v -5 20 10
v -5 20 -10
v -5 22 10
v -5 22 -10
v -5 24 10
v -5 24 -10
v -5 26 10
v -5 26 9
v -5 26 8
v -5 26 5
v -5 26 4
v -5 26 -4
v -5 26 -5
v -5 26 -8
v -5 26 -9
v -5 26 -10
v -5 27 11
v -5 27 -11
v 5 11 11
v 5 11 -11
v 5 12 10
v 5 12 -10
v 5 14 10
v 5 14 -10
v 5 16 10
v 5 16 -10
v 5 18 10
v 5 18 -10
v 5 20 10
v 5 20 -10
v 5 22 10
v 5 22 -10
v 5 24 10
v 5 24 -10
v 5 26 10
v 5 26 9
v 5 26 8
v 5 26 5
v 5 26 4
v 5 26 -4
v 5 26 -5
v 5 26 -8
v 5 26 -9
v 5 26 -10
v 5 27 11
v 5 27 -11
v 19 14 9
v 19 14 -9
v 19 16 9
v 19 16 -9
v 19 18 9
v 19 18 -9
v 19 20 9
v 19 20 -9
v 19 22 9
v 19 22 -9
v 19 24 9
v 19 24 -9
v 20 12 10
v 20 12 -10
v 20 14 10
v 20 14 -10
v 20 16 10
v 20 16 -10
v 20 18 10
v 20 18 -10
v 20 20 10
v 20 20 -10
v 20 22 10
v 20 22 -10
v 20 24 10
v 20 24 -10
v 20 26 10
v 20 26 -10
v -5 11 11
v -5 27 11
v 5 11 11
v 5 27 11
v -20 12 10
v -20 14 10
v -20 16 10
v -20 18 10
v -20 20 10
v -20 22 10
v -20 24 10
v -20 26 10
v -5 12 10
v -5 14 10
v -5 16 10
v -5 18 10
v -5 20 10
v -5 22 10
v -5 24 10
v -5 26 10
v 5 12 10
v 5 14 10
v 5 16 10
v 5 18 10
v 5 20 10
v 5 22 10
v 5 24 10
v 5 26 10
v 20 12 10
v 20 14 10
v 20 16 10
v 20 18 10
v 20 20 10
v 20 22 10
v 20 24 10
v 20 26 10
v -19 14 9
v -19 16 9
v -19 18 9
v -19 20 9
v -19 22 9
v -19 24 9
v 19 14 9
v 19 16 9
v 19 18 9
v 19 20 9
v 19 22 9
v 19 24 9
v -5 14 -10
v -5 16 -10
v -5 18 -10
v -5 20 -10
v -5 22 -10
v -5 24 -10
v 5 14 -10
v 5 16 -10
v 5 18 -10
v 5 20 -10
v 5 22 -10
v 5 24 -10
v -5 14 10
v -5 16 10
v -5 18 10
v -5 20 10
v -5 22 10
v -5 24 10
v 5 14 10
v 5 16 10
v 5 18 10
v 5 20 10
v 5 22 10
v 5 24 10
v -19 14 -9
v -19 16 -9
v -19 18 -9
v -19 20 -9
v -19 22 -9
v -19 24 -9
v 19 14 -9
v 19 16 -9
v 19 18 -9
v 19 20 -9
v 19 22 -9
v 19 24 -9
v -20 12 -10
v -20 14 -10
v -20 16 -10
v -20 18 -10
v -20 20 -10
v -20 22 -10
v -20 24 -10
v -20 26 -10
v -5 12 -10
v -5 14 -10
v -5 16 -10
v -5 18 -10
v -5 20 -10
v -5 22 -10
v -5 24 -10
v -5 26 -10
v 5 12 -10
v 5 14 -10
v 5 16 -10
v 5 18 -10
v 5 20 -10
v 5 22 -10
v 5 24 -10
v 5 26 -10
v 20 12 -10
v 20 14 -10
v 20 16 -10
v 20 18 -10
v 20 20 -10
v 20 22 -10
v 20 24 -10
v 20 26 -10
v -5 11 -11
v -5 27 -11
v 5 11 -11
v 5 27 -11
v -5 11 11
v 5 11 11
v -5 11 -11
v 5 11 -11
v -20 12 10
v -5 12 10
v 5 12 10
v 20 12 10
v -20 12 -10
v -5 12 -10
v 5 12 -10
v 20 12 -10
v -20 16 10
v -5 16 10
v 5 16 10
v 20 16 10
v -19 16 9
v 19 16 9
v -19 16 -9
v 19 16 -9
v -20 16 -10
v -5 16 -10
v 5 16 -10
v 20 16 -10
v -20 20 10
v -5 20 10
v 5 20 10
v 20 20 10
v -19 20 9
v 19 20 9
v -19 20 -9
v 19 20 -9
v -20 20 -10
v -5 20 -10
v 5 20 -10
v 20 20 -10
v -20 24 10
v -5 24 10
v 5 24 10
v 20 24 10
v -19 24 9
v 19 24 9
v -19 24 -9
v 19 24 -9
v -20 24 -10
v -5 24 -10
v 5 24 -10
v 20 24 -10
v -20 14 10
v -5 14 10
v 5 14 10
v 20 14 10
v -19 14 9
v 19 14 9
v -19 14 -9
v 19 14 -9
v -20 14 -10
v -5 14 -10
v 5 14 -10
v 20 14 -10
v -20 18 10
v -5 18 10
v 5 18 10
v 20 18 10
v -19 18 9
v 19 18 9
v -19 18 -9
v 19 18 -9
v -20 18 -10
v -5 18 -10
v 5 18 -10
v 20 18 -10
v -20 22 10
v -5 22 10
v 5 22 10
v 20 22 10
v -19 22 9
v 19 22 9
v -19 22 -9
v 19 22 -9
v -20 22 -10
v -5 22 -10
v 5 22 -10
v 20 22 -10
v -20 26 10
v -5 26 10
v 5 26 10
v 20 26 10
v -19 26 9
v -5 26 9
v 5 26 9
v 19 26 9
v -18 26 8
v -16 26 8
v -15 26 8
v -5 26 8
v 5 26 8
v 15 26 8
v 16 26 8
v 18 26 8
v -17 26 7
v -16 26 7
v -15 26 7
v 15 26 7
v 16 26 7
v 17 26 7
v -18 26 6
v -17 26 6
v -16 26 6
v 16 26 6
v 17 26 6
v 18 26 6
v -18 26 5
v -17 26 5
v -6 26 5
v -5 26 5
v 5 26 5
v 6 26 5
v 17 26 5
v 18 26 5
v -7 26 4
v -6 26 4
v -5 26 4
v 5 26 4
v 6 26 4
v 7 26 4
v -8 26 3
v -7 26 3
v -6 26 3
v 6 26 3
v 7 26 3
v 8 26 3
v -9 26 1
v -8 26 1
v -7 26 1
v 7 26 1
v 8 26 1
v 9 26 1
v -9 26 -1
v -8 26 -1
v -7 26 -1
v 7 26 -1
v 8 26 -1
v 9 26 -1
v -8 26 -3
v -7 26 -3
v -6 26 -3
v 6 26 -3
v 7 26 -3
v 8 26 -3
v -7 26 -4
v -6 26 -4
v -5 26 -4
v 5 26 -4
v 6 26 -4
v 7 26 -4
v -18 26 -5
v -17 26 -5
v -6 26 -5
v -5 26 -5
v 5 26 -5
v 6 26 -5
v 17 26 -5
v 18 26 -5
v -18 26 -6
v -17 26 -6
v -16 26 -6
v 16 26 -6
v 17 26 -6
v 18 26 -6
v -17 26 -7
v -16 26 -7
v -15 26 -7
v 15 26 -7
v 16 26 -7
v 17 26 -7
v -18 26 -8
v -16 26 -8
v -15 26 -8
v -5 26 -8
v 5 26 -8
v 15 26 -8
v 16 26 -8
v 18 26 -8
v -19 26 -9
v -5 26 -9
v 5 26 -9
v 19 26 -9
v -20 26 -10
v -5 26 -10
v 5 26 -10
v 20 26 -10
v -5 27 11
v 5 27 11
v -2 27 9
v -1 27 9
v 1 27 9
v 2 27 9
v -1 27 7
v 1 27 7
v -3 27 6
v -2 27 6
v -1 27 6
v 1 27 6
v 2 27 6
v 3 27 6
v -3 27 5
v -2 27 5
v 2 27 5
v 3 27 5
v 4 27 5
v 2 27 2
v 3 27 2
v 4 27 2
v -1 27 1
v 1 27 1
v 2 27 1
v 3 27 1
v -3 27 -0
v -2 27 -0
v -1 27 -0
v 1 27 -0
v -4 27 -1
v -3 27 -1
v -2 27 -1
v -4 27 -4
v -3 27 -4
v -2 27 -4
v 2 27 -4
v 3 27 -4
v -3 27 -5
v -2 27 -5
v -1 27 -5
v 1 27 -5
v 2 27 -5
v 3 27 -5
v -1 27 -6
v 1 27 -6
v -2 27 -8
v -1 27 -8
v 1 27 -8
v 2 27 -8
v -5 27 -11
v 5 27 -11

# faces
f 3/4/1 2/4/1 1/4/1
f 4/4/1 2/4/1 3/4/1
f 7/4/1 6/4/1 5/4/1
f 8/4/1 6/4/1 7/4/1
f 11/4/1 10/4/1 9/4/1
f 12/4/1 10/4/1 11/4/1
f 15/4/1 14/4/1 13/4/1
f 16/4/1 14/4/1 15/4/1
f 19/4/1 18/4/1 17/4/1
f 20/4/1 18/4/1 19/4/1
f 23/4/1 22/4/1 21/4/1
f 24/4/1 22/4/1 23/4/1
f 27/4/1 26/4/1 25/4/1
f 28/4/1 26/4/1 27/4/1
f 31/6/1 30/6/1 29/6/1
f 32/6/1 30/6/1 31/6/1
f 33/6/1 31/6/1 29/6/1
f 34/6/1 30/6/1 32/6/1
f 35/6/1 33/6/1 29/6/1
f 36/6/1 30/6/1 34/6/1
f 37/6/1 35/6/1 29/6/1
f 38/6/1 30/6/1 36/6/1
f 39/6/1 37/6/1 29/6/1
f 40/6/1 30/6/1 38/6/1
f 41/6/1 39/6/1 29/6/1
f 42/6/1 30/6/1 40/6/1
f 43/6/1 41/6/1 29/6/1
f 44/6/1 30/6/1 42/6/1
f 45/6/1 43/6/1 29/6/1
f 54/6/1 30/6/1 44/6/1
f 55/6/1 53/6/1 52/6/1
f 55/6/1 54/6/1 53/6/1
f 55/6/1 45/6/1 29/6/1
f 55/6/1 46/6/1 45/6/1
f 55/6/1 52/6/1 51/6/1
f 55/6/1 51/6/1 50/6/1
f 55/6/1 50/6/1 49/6/1
f 55/6/1 49/6/1 48/6/1
f 55/6/1 48/6/1 47/6/1
f 55/6/1 47/6/1 46/6/1
f 56/6/1 30/6/1 54/6/1
f 56/6/1 54/6/1 55/6/1
f 57/6/2 58/6/2 59/6/2
f 59/6/2 58/6/2 60/6/2
f 57/6/2 59/6/2 61/6/2
f 60/6/2 58/6/2 62/6/2
f 57/6/2 61/6/2 63/6/2
f 62/6/2 58/6/2 64/6/2
f 57/6/2 63/6/2 65/6/2
f 64/6/2 58/6/2 66/6/2
f 57/6/2 65/6/2 67/6/2
f 66/6/2 58/6/2 68/6/2
f 57/6/2 67/6/2 69/6/2
f 68/6/2 58/6/2 70/6/2
f 57/6/2 69/6/2 71/6/2
f 70/6/2 58/6/2 72/6/2
f 57/6/2 71/6/2 73/6/2
f 72/6/2 58/6/2 82/6/2
f 80/6/2 81/6/2 83/6/2
f 81/6/2 82/6/2 83/6/2
f 57/6/2 73/6/2 83/6/2
f 73/6/2 74/6/2 83/6/2
f 79/6/2 80/6/2 83/6/2
f 78/6/2 79/6/2 83/6/2
f 77/6/2 78/6/2 83/6/2
f 76/6/2 77/6/2 83/6/2
f 75/6/2 76/6/2 83/6/2
f 74/6/2 75/6/2 83/6/2
f 82/6/2 58/6/2 84/6/2
f 83/6/2 82/6/2 84/6/2
f 85/4/2 86/4/2 87/4/2
f 87/4/2 86/4/2 88/4/2
f 89/4/2 90/4/2 91/4/2
f 91/4/2 90/4/2 92/4/2
f 93/4/2 94/4/2 95/4/2
f 95/4/2 94/4/2 96/4/2
f 97/4/2 98/4/2 99/4/2
f 99/4/2 98/4/2 100/4/2
f 101/4/2 102/4/2 103/4/2
f 103/4/2 102/4/2 104/4/2
f 105/4/2 106/4/2 107/4/2
f 107/4/2 106/4/2 108/4/2
f 109/4/2 110/4/2 111/4/2
f 111/4/2 110/4/2 112/4/2
f 115/6/3 114/6/3 113/6/3
f 116/6/3 114/6/3 115/6/3
f 125/4/3 118/4/3 117/4/3
f 126/4/3 118/4/3 125/4/3
f 127/4/3 120/4/3 119/4/3
f 128/4/3 120/4/3 127/4/3
f 129/4/3 122/4/3 121/4/3
f 130/4/3 122/4/3 129/4/3
f 131/4/3 124/4/3 123/4/3
f 132/4/3 124/4/3 131/4/3
f 141/4/3 134/4/3 133/4/3
f 142/4/3 134/4/3 141/4/3
f 143/4/3 136/4/3 135/4/3
f 144/4/3 136/4/3 143/4/3
f 145/4/3 138/4/3 137/4/3
f 146/4/3 138/4/3 145/4/3
f 147/4/3 140/4/3 139/4/3
f 148/4/3 140/4/3 147/4/3
f 155/4/3 150/4/3 149/4/3
f 156/4/3 150/4/3 155/4/3
f 157/4/3 152/4/3 151/4/3
f 158/4/3 152/4/3 157/4/3
f 159/4/3 154/4/3 153/4/3
f 160/4/3 154/4/3 159/4/3
f 167/6/3 162/6/3 161/6/3
f 168/6/3 162/6/3 167/6/3
f 169/6/3 164/6/3 163/6/3
f 170/6/3 164/6/3 169/6/3
f 171/6/3 166/6/3 165/6/3
f 172/6/3 166/6/3 171/6/3
f 173/6/4 174/6/4 179/6/4
f 179/6/4 174/6/4 180/6/4
f 175/6/4 176/6/4 181/6/4
f 181/6/4 176/6/4 182/6/4
f 177/6/4 178/6/4 183/6/4
f 183/6/4 178/6/4 184/6/4
f 185/4/4 186/4/4 191/4/4
f 191/4/4 186/4/4 192/4/4
f 187/4/4 188/4/4 193/4/4
f 193/4/4 188/4/4 194/4/4
f 189/4/4 190/4/4 195/4/4
f 195/4/4 190/4/4 196/4/4
f 197/4/4 198/4/4 205/4/4
f 205/4/4 198/4/4 206/4/4
f 199/4/4 200/4/4 207/4/4
f 207/4/4 200/4/4 208/4/4
f 201/4/4 202/4/4 209/4/4
f 209/4/4 202/4/4 210/4/4
f 203/4/4 204/4/4 211/4/4
f 211/4/4 204/4/4 212/4/4
f 213/4/4 214/4/4 221/4/4
f 221/4/4 214/4/4 222/4/4
f 215/4/4 216/4/4 223/4/4
f 223/4/4 216/4/4 224/4/4
f 217/4/4 218/4/4 225/4/4
f 225/4/4 218/4/4 226/4/4
f 219/4/4 220/4/4 227/4/4
f 227/4/4 220/4/4 228/4/4
f 229/6/4 230/6/4 231/6/4
f 231/6/4 230/6/4 232/6/4
f 235/6/5 234/6/5 233/6/5
f 236/6/5 234/6/5 235/6/5
f 241/4/5 238/4/5 237/4/5
f 242/4/5 238/4/5 241/4/5
f 243/4/5 240/4/5 239/4/5
f 244/4/5 240/4/5 243/4/5
f 249/4/5 246/4/5 245/4/5
f 249/4/5 248/4/5 247/4/5
f 249/4/5 247/4/5 246/4/5
f 250/4/5 248/4/5 249/4/5
f 251/4/5 249/4/5 245/4/5
f 252/4/5 248/4/5 250/4/5
f 253/4/5 251/4/5 245/4/5
f 253/4/5 252/4/5 251/4/5
f 254/4/5 252/4/5 253/4/5
f 255/4/5 252/4/5 254/4/5
f 256/4/5 248/4/5 252/4/5
f 256/4/5 252/4/5 255/4/5
f 261/4/5 258/4/5 257/4/5
f 261/4/5 260/4/5 259/4/5
f 261/4/5 259/4/5 258/4/5
f 262/4/5 260/4/5 261/4/5
f 263/4/5 261/4/5 257/4/5
f 264/4/5 260/4/5 262/4/5
f 265/4/5 263/4/5 257/4/5
f 265/4/5 264/4/5 263/4/5
f 266/4/5 264/4/5 265/4/5
f 267/4/5 264/4/5 266/4/5
f 268/4/5 260/4/5 264/4/5
f 268/4/5 264/4/5 267/4/5
f 273/4/5 270/4/5 269/4/5
f 273/4/5 272/4/5 271/4/5
f 273/4/5 271/4/5 270/4/5
f 274/4/5 272/4/5 273/4/5
f 275/4/5 273/4/5 269/4/5
f 276/4/5 272/4/5 274/4/5
f 277/4/5 275/4/5 269/4/5
f 277/4/5 276/4/5 275/4/5
f 278/4/5 276/4/5 277/4/5
f 279/4/5 276/4/5 278/4/5
f 280/4/5 272/4/5 276/4/5
f 280/4/5 276/4/5 279/4/5
f 281/4/6 282/4/6 285/4/6
f 283/4/6 284/4/6 285/4/6
f 282/4/6 283/4/6 285/4/6
f 285/4/6 284/4/6 286/4/6
f 281/4/6 285/4/6 287/4/6
f 286/4/6 284/4/6 288/4/6
f 281/4/6 287/4/6 289/4/6
f 287/4/6 288/4/6 289/4/6
f 289/4/6 288/4/6 290/4/6
f 290/4/6 288/4/6 291/4/6
f 288/4/6 284/4/6 292/4/6
f 291/4/6 288/4/6 292/4/6
f 293/4/6 294/4/6 297/4/6
f 295/4/6 296/4/6 297/4/6
f 294/4/6 295/4/6 297/4/6
f 297/4/6 296/4/6 298/4/6
f 293/4/6 297/4/6 299/4/6
f 298/4/6 296/4/6 300/4/6
f 293/4/6 299/4/6 301/4/6
f 299/4/6 300/4/6 301/4/6
f 301/4/6 300/4/6 302/4/6
f 302/4/6 300/4/6 303/4/6
f 300/4/6 296/4/6 304/4/6
f 303/4/6 300/4/6 304/4/6
f 305/4/6 306/4/6 309/4/6
f 307/4/6 308/4/6 309/4/6
f 306/4/6 307/4/6 309/4/6
f 309/4/6 308/4/6 310/4/6
f 305/4/6 309/4/6 311/4/6
f 310/4/6 308/4/6 312/4/6
f 305/4/6 311/4/6 313/4/6
f 311/4/6 312/4/6 313/4/6
f 313/4/6 312/4/6 314/4/6
f 314/4/6 312/4/6 315/4/6
f 312/4/6 308/4/6 316/4/6
f 315/4/6 312/4/6 316/4/6
f 317/4/6 318/4/6 321/4/6
f 321/4/6 318/4/6 322/4/6
f 319/4/6 320/4/6 323/4/6
f 323/4/6 320/4/6 324/4/6
f 321/5/6 322/5/6 325/5/6
f 325/5/6 322/5/6 326/5/6
f 326/5/6 322/5/6 327/5/6
f 327/5/6 322/5/6 328/5/6
f 323/5/6 324/5/6 329/5/6
f 329/5/6 324/5/6 330/5/6
f 330/5/6 324/5/6 331/5/6
f 331/5/6 324/5/6 332/5/6
f 325/4/6 326/4/6 333/4/6
f 326/5/6 327/5/6 334/5/6
f 333/4/6 326/4/6 334/4/6
f 327/4/6 328/4/6 335/4/6
f 334/5/6 327/5/6 335/5/6
f 329/4/6 330/4/6 336/4/6
f 330/5/6 331/5/6 336/5/6
f 331/4/6 332/4/6 337/4/6
f 336/5/6 331/5/6 337/5/6
f 337/4/6 332/4/6 338/4/6
f 321/5/6 325/5/6 339/5/6
f 325/4/6 333/4/6 339/4/6
f 333/5/6 334/5/6 340/5/6
f 339/4/6 333/4/6 340/4/6
f 334/4/6 335/4/6 341/4/6
f 340/5/6 334/5/6 341/5/6
f 337/5/6 338/5/6 342/5/6
f 336/4/6 337/4/6 342/4/6
f 338/4/6 332/4/6 343/4/6
f 342/5/6 338/5/6 343/5/6
f 332/5/6 324/5/6 344/5/6
f 343/4/6 332/4/6 344/4/6
f 321/5/6 339/5/6 345/5/6
f 339/5/6 340/5/6 345/5/6
f 340/4/6 341/4/6 346/4/6
f 345/5/6 340/5/6 346/5/6
f 341/4/6 335/4/6 347/4/6
f 346/4/6 341/4/6 347/4/6
f 335/4/6 328/4/6 347/4/6
f 347/4/6 328/4/6 348/4/6
f 336/4/6 342/4/6 349/4/6
f 342/4/6 343/4/6 349/4/6
f 329/4/6 336/4/6 349/4/6
f 349/4/6 343/4/6 350/4/6
f 343/5/6 344/5/6 351/5/6
f 350/4/6 343/4/6 351/4/6
f 344/5/6 324/5/6 352/5/6
f 351/5/6 344/5/6 352/5/6
f 346/4/6 347/4/6 353/4/6
f 345/4/6 346/4/6 353/4/6
f 347/5/6 348/5/6 354/5/6
f 353/4/6 347/4/6 354/4/6
f 354/5/6 348/5/6 355/5/6
f 349/5/6 350/5/6 356/5/6
f 350/4/6 351/4/6 357/4/6
f 356/5/6 350/5/6 357/5/6
f 351/4/6 352/4/6 357/4/6
f 357/4/6 352/4/6 358/4/6
f 345/4/6 353/4/6 359/4/6
f 353/5/6 354/5/6 360/5/6
f 359/4/6 353/4/6 360/4/6
f 354/4/6 355/4/6 361/4/6
f 360/5/6 354/5/6 361/5/6
f 356/4/6 357/4/6 362/4/6
f 357/5/6 358/5/6 362/5/6
f 358/4/6 352/4/6 363/4/6
f 362/5/6 358/5/6 363/5/6
f 363/4/6 352/4/6 364/4/6
f 345/4/6 359/4/6 365/4/6
f 359/5/6 360/5/6 366/5/6
f 365/4/6 359/4/6 366/4/6
f 360/4/6 361/4/6 367/4/6
f 366/5/6 360/5/6 367/5/6
f 362/4/6 363/4/6 368/4/6
f 363/5/6 364/5/6 368/5/6
f 364/4/6 352/4/6 369/4/6
f 368/5/6 364/5/6 369/5/6
f 369/4/6 352/4/6 370/4/6
f 345/4/6 365/4/6 371/4/6
f 365/5/6 366/5/6 371/5/6
f 366/4/6 367/4/6 372/4/6
f 371/5/6 366/5/6 372/5/6
f 367/4/6 361/4/6 373/4/6
f 372/4/6 367/4/6 373/4/6
f 362/4/6 368/4/6 374/4/6
f 368/4/6 369/4/6 374/4/6
f 369/5/6 370/5/6 375/5/6
f 374/4/6 369/4/6 375/4/6
f 370/4/6 352/4/6 376/4/6
f 375/5/6 370/5/6 376/5/6
f 371/4/6 372/4/6 377/4/6
f 372/5/6 373/5/6 377/5/6
f 373/4/6 361/4/6 378/4/6
f 377/5/6 373/5/6 378/5/6
f 361/4/6 355/4/6 379/4/6
f 378/4/6 361/4/6 379/4/6
f 356/4/6 362/4/6 380/4/6
f 362/4/6 374/4/6 380/4/6
f 374/5/6 375/5/6 381/5/6
f 380/4/6 374/4/6 381/4/6
f 375/4/6 376/4/6 382/4/6
f 381/5/6 375/5/6 382/5/6
f 377/4/6 378/4/6 383/4/6
f 378/5/6 379/5/6 383/5/6
f 379/4/6 355/4/6 384/4/6
f 383/5/6 379/5/6 384/5/6
f 384/4/6 355/4/6 385/4/6
f 356/4/6 380/4/6 386/4/6
f 380/5/6 381/5/6 387/5/6
f 386/4/6 380/4/6 387/4/6
f 381/4/6 382/4/6 388/4/6
f 387/5/6 381/5/6 388/5/6
f 377/4/6 383/4/6 389/4/6
f 371/4/6 377/4/6 389/4/6
f 321/5/6 345/5/6 389/5/6
f 383/4/6 384/4/6 389/4/6
f 345/4/6 371/4/6 389/4/6
f 389/4/6 384/4/6 390/4/6
f 384/5/6 385/5/6 391/5/6
f 390/4/6 384/4/6 391/4/6
f 391/5/6 385/5/6 392/5/6
f 386/5/6 387/5/6 393/5/6
f 387/4/6 388/4/6 394/4/6
f 393/5/6 387/5/6 394/5/6
f 388/4/6 382/4/6 395/4/6
f 394/4/6 388/4/6 395/4/6
f 382/4/6 376/4/6 395/4/6
f 376/4/6 352/4/6 395/4/6
f 352/5/6 324/5/6 396/5/6
f 395/4/6 352/4/6 396/4/6
f 389/5/6 390/5/6 397/5/6
f 321/5/6 389/5/6 397/5/6
f 390/4/6 391/4/6 398/4/6
f 397/5/6 390/5/6 398/5/6
f 391/4/6 392/4/6 398/4/6
f 398/4/6 392/4/6 399/4/6
f 393/4/6 394/4/6 400/4/6
f 394/4/6 395/4/6 400/4/6
f 395/5/6 396/5/6 401/5/6
f 400/4/6 395/4/6 401/4/6
f 396/5/6 324/5/6 402/5/6
f 401/5/6 396/5/6 402/5/6
f 398/5/6 399/5/6 403/5/6
f 397/4/6 398/4/6 403/4/6
f 399/4/6 392/4/6 404/4/6
f 403/5/6 399/5/6 404/5/6
f 404/4/6 392/4/6 405/4/6
f 393/4/6 400/4/6 406/4/6
f 400/5/6 401/5/6 407/5/6
f 406/4/6 400/4/6 407/4/6
f 401/4/6 402/4/6 408/4/6
f 407/5/6 401/5/6 408/5/6
f 397/4/6 403/4/6 409/4/6
f 321/5/6 397/5/6 409/5/6
f 403/4/6 404/4/6 409/4/6
f 404/5/6 405/5/6 410/5/6
f 409/4/6 404/4/6 410/4/6
f 405/4/6 392/4/6 411/4/6
f 410/5/6 405/5/6 411/5/6
f 411/4/6 392/4/6 412/4/6
f 393/4/6 406/4/6 413/4/6
f 406/5/6 407/5/6 414/5/6
f 413/4/6 406/4/6 414/4/6
f 407/4/6 408/4/6 415/4/6
f 414/5/6 407/5/6 415/5/6
f 408/4/6 402/4/6 416/4/6
f 415/4/6 408/4/6 416/4/6
f 402/5/6 324/5/6 416/5/6
f 317/4/6 321/4/6 417/4/6
f 410/5/6 411/5/6 417/5/6
f 411/5/6 412/5/6 417/5/6
f 321/5/6 409/5/6 417/5/6
f 409/5/6 410/5/6 417/5/6
f 417/5/6 412/5/6 418/5/6
f 414/5/6 415/5/6 419/5/6
f 415/5/6 416/5/6 419/5/6
f 413/5/6 414/5/6 419/5/6
f 324/4/6 320/4/6 420/4/6
f 419/5/6 416/5/6 420/5/6
f 416/5/6 324/5/6 420/5/6
f 417/4/6 418/4/6 421/4/6
f 317/4/6 417/4/6 421/4/6
f 421/4/6 418/4/6 422/4/6
f 419/4/6 420/4/6 423/4/6
f 420/4/6 320/4/6 424/4/6
f 423/4/6 420/4/6 424/4/6
f 425/6/6 426/6/6 427/6/6
f 427/6/6 426/6/6 428/6/6
f 428/6/6 426/6/6 429/6/6
f 429/6/6 426/6/6 430/6/6
f 427/2/6 428/2/6 431/2/6
f 428/6/6 429/6/6 431/6/6
f 429/2/6 430/2/6 432/2/6
f 431/6/6 429/6/6 432/6/6
f 425/6/6 427/6/6 433/6/6
f 427/2/6 431/2/6 434/2/6
f 433/6/6 427/6/6 434/6/6
f 431/2/6 432/2/6 434/2/6
f 434/2/6 432/2/6 435/2/6
f 432/2/6 430/2/6 436/2/6
f 435/2/6 432/2/6 436/2/6
f 430/6/6 426/6/6 437/6/6
f 436/2/6 430/2/6 437/2/6
f 437/6/6 426/6/6 438/6/6
f 434/2/6 435/2/6 439/2/6
f 425/6/6 433/6/6 439/6/6
f 433/2/6 434/2/6 439/2/6
f 439/2/6 435/2/6 440/2/6
f 437/2/6 438/2/6 441/2/6
f 436/2/6 437/2/6 441/2/6
f 438/6/6 426/6/6 442/6/6
f 441/2/6 438/2/6 442/2/6
f 442/6/6 426/6/6 443/6/6
f 436/2/6 441/2/6 444/2/6
f 441/6/6 442/6/6 444/6/6
f 442/2/6 443/2/6 445/2/6
f 444/6/6 442/6/6 445/6/6
f 443/6/6 426/6/6 446/6/6
f 445/2/6 443/2/6 446/2/6
f 435/6/6 436/6/6 447/6/6
f 440/2/6 435/2/6 447/2/6
f 444/2/6 445/2/6 448/2/6
f 447/6/6 436/6/6 448/6/6
f 436/2/6 444/2/6 448/2/6
f 448/2/6 445/2/6 449/2/6
f 445/6/6 446/6/6 450/6/6
f 449/2/6 445/2/6 450/2/6
f 439/6/6 440/6/6 451/6/6
f 425/6/6 439/6/6 451/6/6
f 440/2/6 447/2/6 452/2/6
f 451/6/6 440/6/6 452/6/6
f 448/2/6 449/2/6 452/2/6
f 447/2/6 448/2/6 452/2/6
f 452/2/6 449/2/6 453/2/6
f 453/2/6 449/2/6 454/2/6
f 425/6/6 451/6/6 455/6/6
f 451/2/6 452/2/6 456/2/6
f 455/6/6 451/6/6 456/6/6
f 452/2/6 453/2/6 456/2/6
f 456/2/6 453/2/6 457/2/6
f 425/6/6 455/6/6 458/6/6
f 455/2/6 456/2/6 458/2/6
f 456/6/6 457/6/6 459/6/6
f 458/2/6 456/2/6 459/2/6
f 457/2/6 453/2/6 460/2/6
f 459/6/6 457/6/6 460/6/6
f 454/2/6 449/2/6 461/2/6
f 449/6/6 450/6/6 461/6/6
f 450/6/6 446/6/6 462/6/6
f 461/6/6 450/6/6 462/6/6
f 459/2/6 460/2/6 463/2/6
f 458/6/6 459/6/6 463/6/6
f 460/2/6 453/2/6 464/2/6
f 463/2/6 460/2/6 464/2/6
f 453/6/6 454/6/6 465/6/6
f 464/2/6 453/2/6 465/2/6
f 454/2/6 461/2/6 466/2/6
f 465/6/6 454/6/6 466/6/6
f 461/2/6 462/2/6 466/2/6
f 466/2/6 462/2/6 467/2/6
f 462/6/6 446/6/6 468/6/6
f 467/2/6 462/2/6 468/2/6
f 466/2/6 467/2/6 469/2/6
f 464/2/6 465/2/6 469/2/6
f 465/2/6 466/2/6 469/2/6
f 469/2/6 467/2/6 470/2/6
f 463/6/6 464/6/6 471/6/6
f 464/2/6 469/2/6 471/2/6
f 469/6/6 470/6/6 472/6/6
f 471/2/6 469/2/6 472/2/6
f 470/2/6 467/2/6 473/2/6
f 472/6/6 470/6/6 473/6/6
f 467/6/6 468/6/6 474/6/6
f 473/2/6 467/2/6 474/2/6
f 458/6/6 463/6/6 475/6/6
f 472/6/6 473/6/6 475/6/6
f 473/6/6 474/6/6 475/6/6
f 463/6/6 471/6/6 475/6/6
f 471/6/6 472/6/6 475/6/6
f 425/6/6 458/6/6 475/6/6
f 474/6/6 468/6/6 476/6/6
f 475/6/6 474/6/6 476/6/6
f 446/6/6 426/6/6 476/6/6
f 468/6/6 446/6/6 476/6/6
